<svg xmlns="http://www.w3.org/2000/svg">
<g fill="#FFFFFF" font-family="Roboto-Regular,Roboto, sans-serif">
<rect fill="#333333" height="100%" width="100%"/>
<g transform="translate(0,30)">
<line stroke="#999999" x1="85" x2="80" y1="510" y2="510"/>
<line stroke="#999999" x1="80" x2="703" y1="510" y2="510"/>
<text direction="rtl" font-size="12" x="75" y="514">
0
</text>
<line stroke="#999999" x1="85" x2="80" y1="405.68677" y2="405.68677"/>
<line stroke="#999999" x1="80" x2="703" y1="405.68677" y2="405.68677"/>
<text direction="rtl" font-size="12" x="75" y="409.68677">
0.5
</text>
<line stroke="#999999" x1="85" x2="80" y1="301.37354" y2="301.37354"/>
<line stroke="#999999" x1="80" x2="703" y1="301.37354" y2="301.37354"/>
<text direction="rtl" font-size="12" x="75" y="305.37354">
1
</text>
<line stroke="#999999" x1="85" x2="80" y1="197.0603" y2="197.0603"/>
<line stroke="#999999" x1="80" x2="703" y1="197.0603" y2="197.0603"/>
<text direction="rtl" font-size="12" x="75" y="201.0603">
1.5
</text>
<line stroke="#999999" x1="85" x2="80" y1="92.74707" y2="92.74707"/>
<line stroke="#999999" x1="80" x2="703" y1="92.74707" y2="92.74707"/>
<text direction="rtl" font-size="12" x="75" y="96.74707">
2
</text>
<text text-anchor="middle" x="30" y="255">
Gb/s
</text>
<line stroke="#999999" x1="85" x2="85" y1="10" y2="510"/>
<line stroke="#999999" x1="85" x2="790" y1="510" y2="510"/>
<rect fill="#52C1BF" height="207.5668" width="25" x="90" y="302.4332"/>
<rect fill="#9B9B9B" height="69.64936" width="25" x="118" y="440.35065"/>
<rect fill="#EEA47F" height="197.50783" width="25" x="146" y="312.4922"/>
<rect fill="#F7DC6F" height="177.37025" width="25" x="174" y="332.62976"/>
<text text-anchor="left" x="90" y="530">
34K Text
</text>
<rect fill="#52C1BF" height="128.82166" width="25" x="230" y="381.17834"/>
<rect fill="#9B9B9B" height="66.728966" width="25" x="258" y="443.27103"/>
<rect fill="#EEA47F" height="158.4628" width="25" x="286" y="351.5372"/>
<rect fill="#F7DC6F" height="117.65891" width="25" x="314" y="392.3411"/>
<text text-anchor="left" x="230" y="530">
65K Text
</text>
<rect fill="#52C1BF" height="480.79657" width="25" x="370" y="29.20343"/>
<rect fill="#9B9B9B" height="188.16724" width="25" x="398" y="321.83276"/>
<rect fill="#EEA47F" height="500" width="25" x="426" y="10"/>
<rect fill="#F7DC6F" height="440.60324" width="25" x="454" y="69.39676"/>
<text text-anchor="left" x="370" y="530">
66K JSON
</text>
<rect fill="#52C1BF" height="195.75443" width="25" x="510" y="314.24557"/>
<rect fill="#9B9B9B" height="69.23534" width="25" x="538" y="440.76465"/>
<rect fill="#EEA47F" height="201.54161" width="25" x="566" y="308.45837"/>
<rect fill="#F7DC6F" height="198.9662" width="25" x="594" y="311.0338"/>
<text text-anchor="left" x="510" y="530">
725b Text
</text>
<rect fill="#52C1BF" height="83.71183" width="25" x="650" y="426.28818"/>
<rect fill="#9B9B9B" height="56.905033" width="25" x="678" y="453.09497"/>
<rect fill="#EEA47F" height="102.713486" width="25" x="706" y="407.2865"/>
<rect fill="#F7DC6F" height="84.373146" width="25" x="734" y="425.62686"/>
<text text-anchor="left" x="650" y="530">
10Mb Dickens
</text>
<g fill="#000000" transform="translate(717,20)">
<rect fill="#FFFFFF" height="100" stroke="#121212" width="117"/>
<text font-size="12" x="10" y="25">
lz4_cpp
</text>
<rect fill="#EEA47F" height="10" width="20" x="87" y="15"/>
<text font-size="12" x="10" y="45">
lz4_fear_rust
</text>
<rect fill="#9B9B9B" height="10" width="20" x="87" y="35"/>
<text font-size="12" x="10" y="65">
lz4_flex_rust
</text>
<rect fill="#52C1BF" height="10" width="20" x="87" y="55"/>
<text font-size="12" x="10" y="85">
snap
</text>
<rect fill="#F7DC6F" height="10" width="20" x="87" y="75"/>
</g>
<text font-weight="bold" text-anchor="middle" x="400" y="0">
Block Compress Unsafe
</text>
</g>
</g>
</svg>